<svg width="170" height="144" viewBox="0 0 170 144" fill="none" xmlns="http://www.w3.org/2000/svg">
<path d="M28.3334 78C28.3334 90.7304 34.3036 102.939 44.9307 111.941C55.5577 120.943 69.9711 126 85 126C100.029 126 114.442 120.943 125.069 111.941C135.696 102.939 141.667 90.7304 141.667 78C141.667 65.2696 135.696 53.0606 125.069 44.0589C114.442 35.0571 100.029 30 85 30C69.9711 30 55.5577 35.0571 44.9307 44.0589C34.3036 53.0606 28.3334 65.2696 28.3334 78Z" stroke="black" stroke-width="2" stroke-linecap="round" stroke-linejoin="round"/>
<path d="M77.9167 30L85 18L92.0833 30M31.96 60.966C49.64 54.338 67.32 56.016 85 66C103.61 76.512 122.221 77.818 140.831 69.918M30.5646 91.512C48.7074 84.256 66.8525 85.752 85 96C101.24 105.168 117.479 107.33 133.719 102.486" stroke="black" stroke-width="2" stroke-linecap="round" stroke-linejoin="round"/>
</svg>
