<svg width="732" height="573" viewBox="0 0 732 573" fill="none" xmlns="http://www.w3.org/2000/svg">
<path d="M449.123 538.047C449.123 570.776 416.203 582.494 375.597 582.494C334.992 582.494 302.072 570.776 302.072 538.047L320.453 404.707C320.453 371.995 334.992 375.076 375.597 375.076C416.203 375.076 430.741 371.995 430.741 404.707L449.123 538.047Z" fill="#662113"/>
<path d="M621.997 453.562C494.019 365.194 442.189 238.671 375.597 238.671C309.006 238.671 257.176 365.21 129.198 453.562C75.4163 490.7 101.036 512.186 174.765 507.875C240.482 504.057 301.95 492.044 375.597 492.044C449.245 492.044 510.733 504.057 576.409 507.875C650.158 512.186 675.758 490.683 621.997 453.562Z" fill="#5C913B"/>
<path d="M580.435 418.539C482.083 345.855 426.817 241.753 375.597 241.753C324.418 241.753 269.132 345.855 170.78 418.539C92.6183 476.294 273.199 489.258 375.597 418.539C477.955 489.274 658.576 476.294 580.435 418.539Z" fill="#3E721D"/>
<path d="M580.435 359.654C482.083 291.755 426.817 194.503 375.597 194.503C324.418 194.503 269.132 291.755 170.78 359.654C92.6183 413.606 273.199 425.718 375.597 359.654C477.955 425.734 658.576 413.606 580.435 359.654Z" fill="#5C913B"/>
<path d="M535.499 311.438C458.74 258.42 415.593 182.49 375.597 182.49C335.642 182.49 292.475 258.404 215.696 311.438C154.696 353.558 295.647 363.014 375.597 311.438C455.507 362.998 596.519 353.558 535.499 311.438Z" fill="#3E721D"/>
<path d="M535.499 267.319C458.74 214.301 415.593 138.388 375.597 138.388C335.642 138.388 292.475 214.301 215.696 267.319C154.696 309.455 295.647 318.895 375.597 267.319C455.507 318.895 596.519 309.455 535.499 267.319Z" fill="#5C913B"/>
<path d="M504.633 228.133C442.677 185.358 407.846 124.08 375.577 124.08C343.328 124.08 308.497 185.358 246.521 228.133C197.274 262.14 311.059 269.761 375.577 228.133C440.115 269.761 553.9 262.14 504.633 228.133Z" fill="#3E721D"/>
<path d="M504.633 194.929C442.677 152.154 407.846 90.8764 375.577 90.8764C343.328 90.8764 308.497 152.154 246.521 194.929C197.274 228.936 311.059 236.557 375.577 194.929C440.115 236.557 553.9 228.936 504.633 194.929Z" fill="#5C913B"/>
<path d="M473.787 146.041C426.654 113.493 400.16 66.8667 375.597 66.8667C351.035 66.8667 324.54 113.493 277.387 146.041C239.913 171.919 326.492 177.721 375.597 146.041C424.682 177.721 511.282 171.919 473.787 146.041Z" fill="#3E721D"/>
<path d="M473.787 128.358C426.654 95.793 400.16 49.1667 375.597 49.1667C351.035 49.1667 324.54 95.793 277.387 128.358C239.913 154.236 326.492 160.037 375.597 128.358C424.682 160.021 511.282 154.219 473.787 128.358Z" fill="#5C913B"/>
<path d="M335.5 221.938C352.345 221.938 366 210.932 366 197.355C366 183.778 352.345 172.772 335.5 172.772C318.655 172.772 305 183.778 305 197.355C305 210.932 318.655 221.938 335.5 221.938Z" fill="#FFCC4D"/>
<path d="M406.667 442.5C429.126 442.5 447.333 427.825 447.333 409.722C447.333 391.62 429.126 376.944 406.667 376.944C384.207 376.944 366 391.62 366 409.722C366 427.825 384.207 442.5 406.667 442.5Z" fill="#FFCC4D"/>
<path d="M457.5 295C485.574 295 508.333 276.656 508.333 254.028C508.333 231.399 485.574 213.056 457.5 213.056C429.425 213.056 406.667 231.399 406.667 254.028C406.667 276.656 429.425 295 457.5 295Z" fill="#DD2E44"/>
<path d="M203.333 458.889C225.793 458.889 244 444.214 244 426.111C244 408.008 225.793 393.333 203.333 393.333C180.874 393.333 162.667 408.008 162.667 426.111C162.667 444.214 180.874 458.889 203.333 458.889Z" fill="#DD2E44"/>
<path d="M284.667 344.167C307.126 344.167 325.333 329.492 325.333 311.389C325.333 293.286 307.126 278.611 284.667 278.611C262.207 278.611 244 293.286 244 311.389C244 329.492 262.207 344.167 284.667 344.167Z" fill="#A6D388"/>
<path d="M528.667 409.722C551.126 409.722 569.333 395.047 569.333 376.944C569.333 358.842 551.126 344.167 528.667 344.167C506.207 344.167 488 358.842 488 376.944C488 395.047 506.207 409.722 528.667 409.722Z" fill="#A6D388"/>
<path d="M394.04 27.5169C396.947 32.0239 404.45 36.5144 410.652 37.4978L438.692 41.9064C444.893 42.8897 446.357 46.6592 441.925 50.2975L421.937 66.7519C417.525 70.3903 414.515 77.5194 415.308 82.5672L418.765 105.413C419.538 110.477 415.532 112.756 409.859 110.494L384.3 100.251C378.627 97.9892 369.294 97.8908 363.56 100.038L337.655 109.773C331.921 111.903 327.977 109.543 328.912 104.496L333.08 81.715C333.995 76.6836 331.23 69.5053 326.94 65.7686L307.44 48.9372C303.129 45.2169 304.695 41.4475 310.937 40.6117L339.099 36.7767C345.341 35.9408 352.946 31.5978 356.016 27.14L369.863 6.99804C372.934 2.54026 377.875 2.58943 380.782 7.09638L394.04 27.5169Z" fill="#FFAC33"/>
</svg>
